<svg xmlns="http://www.w3.org/2000/svg" viewBox="0 0 16 18.02"><defs><style>.cls-1{fill:#ffffff;}</style></defs><title>doc-btn</title><g id="Camada_2" data-name="Camada 2"><g id="Camada_1-2" data-name="Camada 1"><rect class="cls-1" x="3.93" y="2.7" width="5.61" height="1.29"/><rect class="cls-1" x="3.93" y="4.89" width="8.84" height="1.29"/><rect class="cls-1" x="3.09" y="7.08" width="10.25" height="1.29"/><rect class="cls-1" x="3.93" y="11.07" width="3.09" height="1.29"/><path class="cls-1" d="M12.46,15.83V14.78H13.6ZM1.4,1.29H14.6v12.2H11.76a.67.67,0,0,0-.7.65v2.6H1.4ZM16,.64A.67.67,0,0,0,15.3,0H.7A.67.67,0,0,0,0,.64V17.38A.67.67,0,0,0,.7,18H12L12,18l.06,0,.06,0,.11-.08,3.53-3.25.08-.09,0,0,0-.08v0s0-.07,0-.11h0s0-.07,0-.11h0Z"/></g></g></svg>