<svg xmlns="http://www.w3.org/2000/svg" viewBox="0 0 24.1 26.56"><defs><style>.cls-1{fill:#40639a;}.cls-2{fill:#2d5892;}.cls-3{fill:#fff;}</style></defs><title>doc</title><g id="Camada_2" data-name="Camada 2"><g id="Camada_1-2" data-name="Camada 1"><rect class="cls-1" x="2.95" y="2.98" width="21.15" height="11.28" rx="2.82"/><path class="cls-2" d="M17.3,21.78h1.58L17.3,23.32ZM22.21,1a1,1,0,0,0-1-.95H1A1,1,0,0,0,0,1V25.61a1,1,0,0,0,1,.95H16.34l.17,0,.08,0,.1,0,.09,0a.2.2,0,0,0,.08,0,.79.79,0,0,0,.15-.12l4.91-4.78.11-.13,0,0,.06-.11s0,0,0,0a.88.88,0,0,0,.05-.15h0a.86.86,0,0,0,0-.16V15.56a1,1,0,0,0-1.95,0v4.32H16.32a1,1,0,0,0-1,.95v3.83H2V1.9H21.23a1,1,0,0,0,1-.95"/><path class="cls-3" d="M5.66,11.8v-6H7.51a2.8,2.8,0,0,1,1.42.36,2.54,2.54,0,0,1,1,1,3.18,3.18,0,0,1,.35,1.49v.28a3.12,3.12,0,0,1-.35,1.49,2.42,2.42,0,0,1-1,1,2.91,2.91,0,0,1-1.42.37Zm1.24-5v4h.6a1.37,1.37,0,0,0,1.11-.47A2.1,2.1,0,0,0,9,9V8.65a2.15,2.15,0,0,0-.38-1.39,1.32,1.32,0,0,0-1.11-.47Z"/><path class="cls-3" d="M16.1,8.93a3.57,3.57,0,0,1-.31,1.55,2.41,2.41,0,0,1-.9,1,2.67,2.67,0,0,1-2.68,0,2.41,2.41,0,0,1-.91-1A3.51,3.51,0,0,1,11,9v-.3A3.51,3.51,0,0,1,11.3,7.1a2.36,2.36,0,0,1,.9-1,2.67,2.67,0,0,1,2.68,0,2.36,2.36,0,0,1,.9,1,3.65,3.65,0,0,1,.32,1.56Zm-1.26-.28a2.54,2.54,0,0,0-.33-1.43,1.11,1.11,0,0,0-1-.49,1.09,1.09,0,0,0-1,.48,2.52,2.52,0,0,0-.35,1.42v.3a2.63,2.63,0,0,0,.34,1.43,1.21,1.21,0,0,0,1.94,0A2.59,2.59,0,0,0,14.84,9Z"/><path class="cls-3" d="M21.72,9.79A2.1,2.1,0,0,1,21,11.32a2.55,2.55,0,0,1-1.71.56,2.26,2.26,0,0,1-1.82-.78A3.2,3.2,0,0,1,16.82,9V8.6a3.66,3.66,0,0,1,.3-1.53,2.38,2.38,0,0,1,.88-1,2.74,2.74,0,0,1,3,.21,2.3,2.3,0,0,1,.73,1.56H20.49A1.28,1.28,0,0,0,20.17,7a1.19,1.19,0,0,0-.85-.26,1.05,1.05,0,0,0-.93.44,2.6,2.6,0,0,0-.32,1.38V9a2.65,2.65,0,0,0,.3,1.43,1,1,0,0,0,.93.45,1.26,1.26,0,0,0,.86-.26,1.17,1.17,0,0,0,.32-.82Z"/></g></g></svg>