<svg xmlns="http://www.w3.org/2000/svg" viewBox="0 0 1035.17 165.72"><defs><style>.cls-1{fill:#b09700;}.cls-2{fill:#00205c;}.cls-3{fill:#505a8b;}</style></defs><title>entecki</title><g id="Camada_2" data-name="Camada 2"><g id="Layer_1" data-name="Layer 1"><path class="cls-1" d="M604.65,56.21a10.58,10.58,0,0,1-7.77-3.41,11,11,0,0,1-3.36-7.93,10.83,10.83,0,0,1,3.36-7.77,10.61,10.61,0,0,1,7.77-3.41,11.21,11.21,0,0,1,8.08,3.25,10.7,10.7,0,0,1,3.36,8,11.48,11.48,0,0,1-11.44,11.34m-9.34,13.36h19V150.1h16.24V15.56H510.41V150.1h84.9Z"/><polygon class="cls-2" points="595.31 133.5 533.45 79.41 591.81 15.56 567.74 15.56 511.1 77.1 511.1 15.56 491.84 15.56 491.84 150.1 511.1 150.1 511.1 83.65 588.35 150.1 595.31 150.1 595.31 133.5"/><polygon class="cls-2" points="193.81 32.51 239.94 32.51 239.94 150.1 259.29 150.1 259.29 32.51 306.19 32.51 306.12 15.56 193.81 15.56 193.81 32.51"/><polygon class="cls-2" points="300.73 149.91 378.83 149.91 378.83 132.76 319.99 132.76 319.99 90.97 375.07 90.97 375.07 73.73 319.99 73.73 319.99 32.7 377 32.7 377 15.56 300.83 15.56 300.73 149.91"/><path class="cls-2" d="M443.86,133.92q-23.4,0-38.43-14.25t-15-36.41q0-22,15.26-36.55T444.05,32.1c15,0,19.6,1.8,35.33,10.79V22.2c-17.27-7.38-22.17-8.37-36.29-8.37q-30.72,0-51.67,20t-20.95,49.4a67.7,67.7,0,0,0,9.15,34.38,66.7,66.7,0,0,0,24.85,25q15.69,9,38.23,9c18.49,0,35.31-4.15,49.44-11.86V118.6c-15.54,10-32,15.32-48.28,15.32"/><path class="cls-2" d="M19.26,32.7H75.52V132.76H19.26V91H68.94V73.73H19.26ZM193.81,15.56h-12V120.1L91.17,15.56H0V150.1H93.63V46.48l90,103.62h16.59V15.56h-6.36Z"/><path class="cls-3" d="M1021.43,158.46a6.37,6.37,0,0,0-2.26-5c-1.06-.92-2.19-1.39-4.64-1.72l-2.82-.44a8.61,8.61,0,0,1-3.87-1.61,4.2,4.2,0,0,1-1.35-3.4c0-3.32,2.23-5.37,6-5.37a8.29,8.29,0,0,1,6.32,2.41l1.28-1.28a10.3,10.3,0,0,0-7.49-2.81c-5,0-8.08,2.74-8.08,7.13a5.88,5.88,0,0,0,2,4.78,8.79,8.79,0,0,0,4.64,1.9l3,.48a6.17,6.17,0,0,1,3.76,1.39,4.53,4.53,0,0,1,1.43,3.65c0,3.4-2.56,5.37-6.69,5.37a9.16,9.16,0,0,1-7.38-3.07l-1.39,1.39a11,11,0,0,0,8.66,3.44c5.45,0,8.77-2.78,8.77-7.2M991,142.1l5.44,15.31H985.51Zm8.33,23.39h2.12l-9.58-26h-1.75l-9.58,26h2.12l2.27-6.32H997Zm-24.12-19c0,3.61-2.38,5.26-5.74,5.26h-7.67V141.17h7.67c3.36,0,5.74,1.65,5.74,5.27m0,19h2.3l-6.28-12a6.7,6.7,0,0,0,6-7c0-4.53-3.21-7-7.45-7h-9.91v26h2v-12H969Zm-25-19.22c0,3.58-2.63,5-5.78,5H937V141.17h7.38c3.15,0,5.78,1.47,5.78,5.05m.4,12.13c0,3.36-2.34,5.34-5.88,5.34H937V153h7.68c3.54,0,5.88,2,5.88,5.34m2,0a6.35,6.35,0,0,0-4.4-6.25,5.92,5.92,0,0,0,4-5.84c0-4.28-3.21-6.8-7.53-6.8h-9.57v26h9.87c4.56,0,7.63-2.45,7.63-7.09m-26.67-5.92c0,5.55-.15,7.6-2,9.47a7.08,7.08,0,0,1-9.87,0c-1.86-1.87-2-3.92-2-9.47s.15-7.6,2-9.47a7.08,7.08,0,0,1,9.87,0c1.86,1.87,2,3.91,2,9.47m2,0c0-5.88,0-8.19-2.41-10.56a9.27,9.27,0,0,0-13,0c-2.38,2.37-2.41,4.68-2.41,10.56s0,8.19,2.41,10.56a9.27,9.27,0,0,0,13,0c2.37-2.37,2.41-4.71,2.41-10.56m-48,13h15.78V163.7H881.87V153.2h11.77v-1.76H881.87V141.17h13.81v-1.75H879.9Zm-9.17-13.35c0,2.93.11,7.46-1.94,9.61a7.32,7.32,0,0,1-5.59,2h-6.29V141.17h6.26a7.36,7.36,0,0,1,5.59,2c2,2.16,1.94,6,1.94,8.88m2,0c0-3.5.11-7.63-2.52-10.26a8.81,8.81,0,0,0-6.51-2.38h-8.73v26h8.73a8.84,8.84,0,0,0,6.5-2.31c2.63-2.63,2.52-7.49,2.52-11m-36.07.37c0,5.55-.15,7.6-2,9.47a7.08,7.08,0,0,1-9.87,0c-1.86-1.87-2-3.92-2-9.47s.15-7.6,2-9.47a7.08,7.08,0,0,1,9.87,0c1.86,1.87,2,3.91,2,9.47m2,0c0-5.88,0-8.19-2.41-10.56a9.27,9.27,0,0,0-13,0c-2.37,2.37-2.41,4.68-2.41,10.56s0,8.19,2.41,10.56a9.27,9.27,0,0,0,13,0c2.38-2.37,2.41-4.71,2.41-10.56m-26.2-17.8-1.09-1.06c-1.14,1.14-1.61,1.21-2.16,1.21a3.74,3.74,0,0,1-2-.77,4.19,4.19,0,0,0-2.52-.88c-.69,0-1.57.08-3.25,1.76l1.09,1.06c1.14-1.14,1.58-1.21,2.16-1.21a4.21,4.21,0,0,1,2,.77,4.85,4.85,0,0,0,2.52.88c.66,0,1.57-.08,3.25-1.76M807,142.1l5.44,15.31H801.51Zm8.33,23.39h2.12l-9.58-26h-1.75l-9.58,26h2.12l2.27-6.32H813Zm-26.2-24.27h7.78v-1.75H779.36v1.75h7.75v24.27h2Zm-13.16,17.29a6.38,6.38,0,0,0-2.27-5c-1-.92-2.19-1.39-4.64-1.72l-2.81-.44a8.61,8.61,0,0,1-3.87-1.61,4.16,4.16,0,0,1-1.36-3.4c0-3.32,2.23-5.37,6-5.37a8.29,8.29,0,0,1,6.33,2.41l1.27-1.28a10.32,10.32,0,0,0-7.41-2.9c-5,0-8.07,2.74-8.07,7.13a5.91,5.91,0,0,0,2,4.78,8.79,8.79,0,0,0,4.64,1.9l3,.48a6.3,6.3,0,0,1,3.76,1.39,4.53,4.53,0,0,1,1.43,3.65c0,3.4-2.56,5.37-6.69,5.37a9.13,9.13,0,0,1-7.38-3.07l-1.39,1.39a11,11,0,0,0,8.66,3.44c5.45,0,8.77-2.78,8.77-7.2m-37.31,7h15.79v-1.75H740.59V153.2h11.77v-1.76H740.59V141.17h13.82v-1.75H738.62Zm-7.13-9.06v-4.3h-9v1.75h7v2.34a7.54,7.54,0,0,1-1.57,5.15,7.06,7.06,0,0,1-10,.86c-.13-.11-.26-.22-.38-.34-1.87-1.87-2-3.92-2-9.47s.14-7.6,2-9.47a7,7,0,0,1,9.9,0,6.92,6.92,0,0,1,1.94,3.8h2a8.81,8.81,0,0,0-8.88-7.6,9.13,9.13,0,0,0-6.51,2.67c-2.37,2.37-2.41,4.68-2.41,10.56s0,8.19,2.41,10.56a9.26,9.26,0,0,0,13.11-.09l.23-.24c1.58-1.64,2.12-3.54,2.12-6.28m-48,9.06h15.79v-1.75h-13.8V153.2h11.72v-1.76H685.45V141.17h13.81v-1.75H683.47Z"/><path class="cls-3" d="M952.59,108.58c0,5.55-.15,7.6-2,9.46a7.06,7.06,0,0,1-9.87,0c-1.86-1.86-2-3.91-2-9.46s.15-7.61,2-9.47a7.06,7.06,0,0,1,9.87,0c1.86,1.86,2,3.91,2,9.47m2,0c0-5.89,0-8.19-2.41-10.57a9.28,9.28,0,0,0-13,0c-2.38,2.38-2.41,4.68-2.41,10.57s0,8.18,2.41,10.56a9.27,9.27,0,0,0,13,0c2.37-2.38,2.41-4.72,2.41-10.56M925.43,97.32h7.74V95.57h-17.5v1.75h7.74v24.27h2Zm-17,24.27h2v-26h-2V118.1l-15-22.54h-2v26h2V99Zm-39,0h15.74v-1.76H871.35V109.34h11.82v-1.75H871.35V97.32h13.82V95.57h-15.8Zm-10.19,0h2v-26h-2l-8.85,20.06-9.06-20.06h-2v26h2V100.1l8,17.8h2l7.84-17.8ZM824.1,98.2l5.44,15.31H818.65Zm8.33,23.39h2.12l-9.58-26h-1.75l-9.58,26h2.12l2.27-6.33h12.14Zm-22.81-7.68V95.57h-2v17.94c0,4.2-2,6.54-5.77,6.54a5.41,5.41,0,0,1-4.35-1.83l-1.33,1.36a7.71,7.71,0,0,0,5.7,2.23c4.71,0,7.74-3.15,7.74-7.9m-32.44,7.68H793v-1.76H779.17V109.34h11.76v-1.75H779.17V97.32H793V95.57H777.17Zm-10.19,0h2v-26h-2V118.1L752,95.56h-2v26h2V99ZM734.78,98.2l5.45,15.31H729.34Zm8.33,23.39h2.12l-9.57-26h-1.75l-9.58,26h2.12l2.27-6.33h12.13Zm-36.39,0H722.5v-1.76H708.69V95.57h-2ZM698.9,103.1c0,3.91-2.49,5.74-6.11,5.74h-7.34V97.32h7.34c3.62,0,6.11,1.83,6.11,5.74m2,0c0-4.79-3.36-7.49-7.86-7.49h-9.57v26h2v-11H693c4.5,0,7.86-2.74,7.86-7.49"/><path class="cls-3" d="M1033.17,64.72c0,5.56-.15,7.6-2,9.47a7.06,7.06,0,0,1-9.87,0c-1.86-1.87-2-3.91-2-9.47s.15-7.6,2-9.46a7.06,7.06,0,0,1,9.87,0c1.86,1.86,2,3.91,2,9.46m2,0c0-5.88,0-8.18-2.41-10.56a9.27,9.27,0,0,0-13,0c-2.38,2.38-2.41,4.68-2.41,10.56s0,8.19,2.41,10.56a9.27,9.27,0,0,0,13,0c2.37-2.37,2.41-4.71,2.41-10.56M1006,53.47h7.78V51.71h-17.5v1.76H1004V77.73h2ZM989,77.73h2v-26h-2V74.28L974,51.73h-2v26h2V55.1Zm-39,0h15.78V76H952V65.49h11.77V63.73H952V53.47h13.81V51.71H950Zm-10.2,0h2v-26h-2L931,71.79,921.9,51.73h-2v26h2V56.28l8,17.8h2l7.89-17.8Zm-35.1-23.39,5.46,15.32H899.26ZM913,77.73h2.13l-9.57-26h-1.76l-9.57,26h2.11l2.27-6.32h12.12Zm-25.51,0h2v-26h-2Zm-7-7.38H878.6a7,7,0,0,1-8,5.78,6.92,6.92,0,0,1-3.8-1.94c-1.87-1.87-2-3.91-2-9.47s.14-7.6,2-9.46a6.88,6.88,0,0,1,4.93-2c3.51,0,6.06,2.23,6.83,5.84h2c-.87-4.67-4.16-7.6-8.84-7.6a9.12,9.12,0,0,0-6.51,2.66c-2.37,2.38-2.41,4.68-2.41,10.56s0,8.19,2.41,10.56A9.08,9.08,0,0,0,871.68,78c4.6,0,8-2.92,8.84-7.6m-26.93,7.38h2v-26h-2V74.28l-15-22.55h-2v26h2V55.1Zm-39,0h15.79V76H816.56V65.49h11.77V63.73H816.56V53.47h13.82V51.71H814.59Zm-8.81-19c0,3.62-2.37,5.26-5.74,5.26h-7.67V53.47H800c3.37,0,5.74,1.64,5.74,5.26m0,19h2.3l-6.29-12a6.7,6.7,0,0,0,6-7c0-4.53-3.22-7-7.46-7h-9.9v26h2v-12h7.16Zm-37.39,0h15.78V76H770.33V65.49H782.1V63.73H770.33V53.47h13.84V51.71H768.36Zm-7.13-9.06V64.43h-9v1.75h7v2.34a7.56,7.56,0,0,1-1.57,5.16,7,7,0,0,1-5.41,2.52,6.9,6.9,0,0,1-4.93-2c-1.87-1.87-2-3.91-2-9.47s.14-7.6,2-9.46a7,7,0,0,1,11.77,3.83h2a8.81,8.81,0,0,0-8.88-7.6,9.05,9.05,0,0,0-6.5,2.67c-2.38,2.38-2.41,4.68-2.41,10.56s0,8.19,2.41,10.56a9.05,9.05,0,0,0,6.5,2.67,9.23,9.23,0,0,0,6.84-3c1.57-1.65,2.11-3.55,2.11-6.29M725.4,77.73h2v-26h-2l-8.84,20.06-9.07-20.06h-2v26h2V56.28l8,17.8h2l7.89-17.8Zm-41.92,0h15.79V76H685.45V65.49h11.72V63.73H685.45V53.47h13.81V51.71H683.47Z"/><path class="cls-3" d="M908.17,10.49l5.44,15.31H902.7Zm8.33,23.39h2.12L909,7.88h-1.77l-9.58,26h2.12l2.27-6.32h12.09Zm-25.51,0h2v-26h-2Zm-7-7.38h-1.94a7,7,0,0,1-11.88,3.83c-1.86-1.86-2-3.91-2-9.46s.15-7.6,2-9.47a6.91,6.91,0,0,1,4.94-2c3.51,0,6.06,2.23,6.83,5.85h2c-.88-4.68-4.16-7.6-8.84-7.6a9.08,9.08,0,0,0-6.51,2.67c-2.37,2.37-2.41,4.67-2.41,10.56s0,8.18,2.41,10.56a9.1,9.1,0,0,0,6.58,2.66c4.6,0,8-2.93,8.84-7.6m-26.93,7.38h2v-26h-2V30.41l-15-22.55h-2v26h2V11.26ZM828.88,5.37H831L826.47,0h-2L820,5.37h2.08l3.4-4ZM818,33.88h15.79V32.1H820V21.64h11.77V19.88H820V9.61h13.82V7.86H818Zm-7.13-9.07V20.58h-9v1.75h7v2.34a7.54,7.54,0,0,1-1.57,5.15,7,7,0,0,1-5.41,2.52,6.88,6.88,0,0,1-4.93-2c-1.87-1.86-2-3.91-2-9.46s.14-7.6,2-9.47a7,7,0,0,1,9.9,0,6.92,6.92,0,0,1,1.94,3.8h2A8.81,8.81,0,0,0,802,7.65a9.08,9.08,0,0,0-6.51,2.67C793.07,12.69,793,15,793,20.88s0,8.18,2.41,10.56a9.27,9.27,0,0,0,13.11-.1l.23-.24c1.57-1.64,2.12-3.54,2.12-6.29m-27,9.07h2v-26h-2Zm-21.09,0H778.6V32.1H764.75V7.86h-2Zm-22,0H756.6V32.1H742.71V21.64h11.77V19.88H742.71V9.61h13.82V7.86H740.74ZM727.66,9.61h7.78V7.86H717.93V9.61h7.75V33.88h2Zm-17,24.27h2v-26h-2V30.41l-15-22.55h-2v26h2V11.26Zm-27.19,0h2v-26h-2Z"/></g></g></svg>