<svg id="Layer_1" data-name="Layer 1" xmlns="http://www.w3.org/2000/svg" xmlns:xlink="http://www.w3.org/1999/xlink" viewBox="0 0 1145 242"><defs><style>.cls-1{fill:none;}.cls-2{clip-path:url(#clip-path);}.cls-3{fill:#b09700;}.cls-4{fill:#00205c;}.cls-5{fill:#505a8b;}</style><clipPath id="clip-path"><rect class="cls-1" x="59.83" y="50.73" width="778.63" height="293.73"/></clipPath></defs><title>logo_pantone_horiz</title><g class="cls-2"><path class="cls-3" d="M664.48,93.11a10.57,10.57,0,0,1-7.77-3.41,11,11,0,0,1-3.36-7.93A10.84,10.84,0,0,1,656.71,74a10.61,10.61,0,0,1,7.77-3.41,11.23,11.23,0,0,1,8.08,3.25,10.68,10.68,0,0,1,3.36,8,11.47,11.47,0,0,1-11.44,11.34m-9.34,13.36h19V187h16.24V52.46H570.24V187h84.9Z"/></g><polygon class="cls-4" points="655.14 170.4 593.28 116.31 651.64 52.46 627.57 52.46 570.93 114 570.93 52.46 551.67 52.46 551.67 187 570.93 187 570.93 120.55 648.18 187 655.14 187 655.14 170.4"/><polygon class="cls-4" points="253.64 69.41 299.77 69.41 299.77 187 319.12 187 319.12 69.41 366.02 69.41 365.95 52.46 253.64 52.46 253.64 69.41"/><polygon class="cls-4" points="360.56 186.81 438.66 186.81 438.66 169.66 379.82 169.66 379.82 127.87 434.9 127.87 434.9 110.63 379.82 110.63 379.82 69.6 436.83 69.6 436.83 52.46 360.66 52.46 360.56 186.81"/><g class="cls-2"><path class="cls-4" d="M503.69,170.82q-23.4,0-38.43-14.25t-15-36.41q0-22,15.26-36.55T503.88,69c15,0,19.6,1.8,35.33,10.79V59.1c-17.27-7.38-22.17-8.37-36.29-8.37q-30.72,0-51.67,20t-20.95,49.4a67.71,67.71,0,0,0,9.15,34.38,66.72,66.72,0,0,0,24.85,25q15.69,9,38.23,9c18.49,0,35.31-4.15,49.44-11.86V155.5c-15.54,10-32,15.32-48.28,15.32"/></g><path class="cls-4" d="M79.09,69.6h56.26V169.66H79.09V127.87h49.68V110.63H79.09ZM253.64,52.46h-12V157L151,52.46H59.83V187h93.63V83.38L243.41,187H260V52.46h-6.33v0Z"/><path class="cls-5" d="M1081.26,195.36a6.4,6.4,0,0,0-2.26-5c-1.06-.92-2.19-1.39-4.64-1.72l-2.82-.44a8.58,8.58,0,0,1-3.87-1.61,4.19,4.19,0,0,1-1.35-3.4c0-3.32,2.23-5.37,6-5.37a8.27,8.27,0,0,1,6.32,2.41l1.28-1.28a10.31,10.31,0,0,0-7.49-2.81c-5,0-8.08,2.74-8.08,7.13a5.9,5.9,0,0,0,2,4.78,8.77,8.77,0,0,0,4.64,1.9l3,.48a6.21,6.21,0,0,1,3.76,1.39,4.52,4.52,0,0,1,1.43,3.65c0,3.4-2.56,5.37-6.69,5.37a9.14,9.14,0,0,1-7.38-3.07l-1.39,1.39a11,11,0,0,0,8.66,3.44c5.45,0,8.77-2.78,8.77-7.2M1050.79,179l5.44,15.31h-10.89Zm8.33,23.39h2.12l-9.58-26h-1.75l-9.58,26h2.12l2.27-6.32h12.13Zm-24.12-19c0,3.61-2.38,5.26-5.74,5.26h-7.67V178.07h7.67c3.36,0,5.74,1.65,5.74,5.27m0,19h2.3l-6.28-12a6.7,6.7,0,0,0,6-7c0-4.53-3.21-7-7.45-7h-9.91v26h2v-12h7.16ZM1010,183.12c0,3.58-2.63,5-5.78,5h-7.38V178.07h7.38c3.15,0,5.78,1.47,5.78,5.05m.4,12.13c0,3.36-2.34,5.34-5.88,5.34h-7.68V189.91h7.68c3.54,0,5.88,2,5.88,5.34m2,0A6.35,6.35,0,0,0,1008,189a5.93,5.93,0,0,0,4-5.84c0-4.28-3.21-6.8-7.53-6.8h-9.57v26h9.87c4.56,0,7.63-2.45,7.63-7.09m-26.67-5.92c0,5.55-.15,7.6-2,9.47a7.09,7.09,0,0,1-9.87,0c-1.86-1.87-2-3.92-2-9.47s.15-7.6,2-9.47a7.09,7.09,0,0,1,9.87,0c1.86,1.87,2,3.91,2,9.47m2,0c0-5.88,0-8.19-2.41-10.56a9.26,9.26,0,0,0-13,0c-2.38,2.37-2.41,4.68-2.41,10.56s0,8.19,2.41,10.56a9.26,9.26,0,0,0,13,0c2.37-2.37,2.41-4.71,2.41-10.56m-48,13h15.78v-1.75H941.7V190.1h11.77v-1.76H941.7V178.07h13.81v-1.75H939.73ZM930.56,189c0,2.93.11,7.46-1.94,9.61a7.31,7.31,0,0,1-5.59,2h-6.29V178.07H923a7.34,7.34,0,0,1,5.59,2c2,2.16,1.94,6,1.94,8.88m2,0c0-3.5.11-7.63-2.52-10.26a8.82,8.82,0,0,0-6.51-2.38h-8.73v26h8.73A8.82,8.82,0,0,0,930,200c2.63-2.63,2.52-7.49,2.52-11m-36.07.37c0,5.55-.15,7.6-2,9.47a7.09,7.09,0,0,1-9.87,0c-1.86-1.87-2-3.92-2-9.47s.15-7.6,2-9.47a7.09,7.09,0,0,1,9.87,0c1.86,1.87,2,3.91,2,9.47m2,0c0-5.88,0-8.19-2.41-10.56a9.26,9.26,0,0,0-13,0c-2.37,2.37-2.41,4.68-2.41,10.56s0,8.19,2.41,10.56a9.26,9.26,0,0,0,13,0c2.38-2.37,2.41-4.71,2.41-10.56m-26.2-17.8-1.09-1.06c-1.14,1.14-1.61,1.21-2.16,1.21a3.74,3.74,0,0,1-2.05-.77,4.21,4.21,0,0,0-2.52-.88c-.69,0-1.57.08-3.25,1.76l1.09,1.06c1.14-1.14,1.58-1.21,2.16-1.21a4.22,4.22,0,0,1,2.05.77,4.82,4.82,0,0,0,2.52.88c.66,0,1.57-.08,3.25-1.76M866.79,179l5.44,15.31H861.34Zm8.33,23.39h2.12l-9.58-26h-1.75l-9.58,26h2.12l2.27-6.32h12.13Zm-26.2-24.27h7.78v-1.75H839.19v1.75h7.75v24.27h2Zm-13.16,17.29a6.38,6.38,0,0,0-2.27-5c-1-.92-2.19-1.39-4.64-1.72l-2.81-.44a8.58,8.58,0,0,1-3.87-1.61,4.17,4.17,0,0,1-1.36-3.4c0-3.32,2.23-5.37,6-5.37a8.29,8.29,0,0,1,6.33,2.41l1.27-1.28A10.3,10.3,0,0,0,827,176.1c-5,0-8.07,2.74-8.07,7.13a5.92,5.92,0,0,0,2,4.78,8.84,8.84,0,0,0,4.64,1.9l3,.48a6.27,6.27,0,0,1,3.76,1.39,4.52,4.52,0,0,1,1.43,3.65c0,3.4-2.56,5.37-6.69,5.37a9.13,9.13,0,0,1-7.38-3.07l-1.39,1.39a11,11,0,0,0,8.66,3.44c5.45,0,8.77-2.78,8.77-7.2m-37.31,7h15.79v-1.75H800.42V190.1h11.77v-1.76H800.42V178.07h13.82v-1.75H798.45Zm-7.13-9.06V189h-9v1.75h7v2.34a7.56,7.56,0,0,1-1.57,5.15,7.07,7.07,0,0,1-10.34.52c-1.87-1.87-2-3.92-2-9.47s.14-7.6,2-9.47a7,7,0,0,1,11.84,3.84h2a8.81,8.81,0,0,0-8.88-7.6,9.13,9.13,0,0,0-6.51,2.67c-2.37,2.37-2.41,4.68-2.41,10.56s0,8.19,2.41,10.56a9.27,9.27,0,0,0,13.34-.33c1.58-1.64,2.12-3.54,2.12-6.28m-48,9.06h15.79v-1.75H745.28V190.1H757v-1.76H745.28V178.07h13.81v-1.75H743.3Z"/><path class="cls-5" d="M1012.42,145.48c0,5.55-.15,7.6-2,9.46a7.06,7.06,0,0,1-9.87,0c-1.86-1.86-2-3.91-2-9.46s.15-7.61,2-9.47a7.06,7.06,0,0,1,9.87,0c1.86,1.86,2,3.91,2,9.47m2,0c0-5.89,0-8.19-2.41-10.57a9.28,9.28,0,0,0-13,0c-2.38,2.38-2.41,4.68-2.41,10.57s0,8.18,2.41,10.56a9.26,9.26,0,0,0,13,0c2.37-2.38,2.41-4.72,2.41-10.56m-29.16-11.26H993v-1.75h-17.5v1.75h7.74v24.27h2Zm-17,24.27h2v-26h-2V155l-15-22.54h-2v26h2V135.86Zm-39,0H945v-1.76H931.18V146.24H943v-1.75H931.18V134.22H945v-1.75H929.2Zm-10.19,0h2v-26h-2l-8.85,20.06-9.06-20.06h-2v26h2V137l8,17.8h2L919,137ZM883.93,135.1l5.44,15.31H878.48Zm8.33,23.39h2.12l-9.58-26h-1.75l-9.58,26h2.12l2.27-6.33H890Zm-22.81-7.68V132.47h-2v17.94c0,4.2-2,6.54-5.77,6.54a5.41,5.41,0,0,1-4.35-1.83L856,156.48a7.73,7.73,0,0,0,5.7,2.23c4.71,0,7.74-3.15,7.74-7.9M837,158.49h15.79v-1.76H839V146.24h11.76v-1.75H839V134.22h13.81v-1.75H837Zm-10.19,0h2v-26h-2V155l-15-22.54h-2v26h2V135.86Zm-32.2-23.39,5.45,15.31H789.17Zm8.33,23.39h2.12l-9.57-26h-1.75l-9.58,26h2.12l2.27-6.33h12.13Zm-36.39,0h15.78v-1.76H768.52V132.47h-2ZM758.73,140c0,3.91-2.49,5.74-6.11,5.74h-7.34V134.22h7.34c3.62,0,6.11,1.83,6.11,5.74m2,0c0-4.79-3.36-7.49-7.86-7.49H743.3v26h2v-11h7.56c4.5,0,7.86-2.74,7.86-7.49"/><path class="cls-5" d="M1093,101.62c0,5.56-.15,7.6-2,9.47a7.06,7.06,0,0,1-9.87,0c-1.86-1.87-2-3.91-2-9.47s.15-7.6,2-9.46a7.06,7.06,0,0,1,9.87,0c1.86,1.86,2,3.91,2,9.46m2,0c0-5.88,0-8.18-2.41-10.56a9.26,9.26,0,0,0-13,0c-2.38,2.38-2.41,4.68-2.41,10.56s0,8.19,2.41,10.56a9.26,9.26,0,0,0,13,0c2.37-2.37,2.41-4.71,2.41-10.56m-29.16-11.25h7.78V88.61h-17.5v1.76h7.74v24.26h2Zm-17,24.26h2v-26h-2v22.55l-15-22.55h-2v26h2V92Zm-39,0h15.78v-1.75h-13.81V102.39h11.77v-1.76h-11.77V90.37h13.81V88.61h-15.78Zm-10.2,0h2v-26h-2l-8.84,20.06-9.07-20.06h-2v26h2V93.18l8,17.8h2l7.89-17.8ZM964.54,91.24,970,106.56H959.09Zm8.33,23.39H975l-9.57-26h-1.76l-9.57,26h2.11l2.27-6.32H970.6Zm-25.51,0h2v-26h-2Zm-7-7.38h-1.93a7,7,0,0,1-11.84,3.84c-1.87-1.87-2-3.91-2-9.47s.14-7.6,2-9.46a6.86,6.86,0,0,1,4.93-2c3.51,0,6.06,2.23,6.83,5.84h2c-.87-4.67-4.16-7.6-8.84-7.6A9.11,9.11,0,0,0,925,91.06c-2.37,2.38-2.41,4.68-2.41,10.56s0,8.19,2.41,10.56a9.11,9.11,0,0,0,6.51,2.67c4.6,0,8-2.92,8.84-7.6m-26.93,7.38h2v-26h-2v22.55l-15-22.55h-2v26h2V92Zm-39,0h15.79v-1.75H876.39V102.39h11.77v-1.76H876.39V90.37h13.82V88.61H874.42Zm-8.81-19c0,3.62-2.37,5.26-5.74,5.26H852.2V90.37h7.67c3.37,0,5.74,1.64,5.74,5.26m0,19h2.3l-6.29-12a6.7,6.7,0,0,0,6-7c0-4.53-3.22-7-7.46-7h-9.9v26h2v-12h7.16Zm-37.39,0H844v-1.75H830.16V102.39h11.77v-1.76H830.16V90.37H844V88.61H828.19Zm-7.13-9.06v-4.24h-8.95v1.75h7v2.34a7.6,7.6,0,0,1-1.57,5.16,7,7,0,0,1-5.41,2.52,6.92,6.92,0,0,1-4.93-2c-1.87-1.87-2-3.91-2-9.47s.14-7.6,2-9.46A7,7,0,0,1,819,96h2a8.81,8.81,0,0,0-8.88-7.6,9.09,9.09,0,0,0-6.5,2.67c-2.38,2.38-2.41,4.68-2.41,10.56s0,8.19,2.41,10.56a9.09,9.09,0,0,0,6.5,2.67,9.25,9.25,0,0,0,6.84-3c1.57-1.65,2.11-3.55,2.11-6.29m-35.84,9.06h2v-26h-2l-8.84,20.06-9.07-20.06h-2v26h2V93.18l8,17.8h2l7.89-17.8Zm-41.92,0h15.79v-1.75H745.28V102.39H757v-1.76H745.28V90.37h13.81V88.61H743.3Z"/><path class="cls-5" d="M968,47.39l5.44,15.31H962.53Zm8.33,23.39h2.12l-9.58-26H967.1l-9.58,26h2.12l2.27-6.32H974Zm-25.51,0h2v-26h-2Zm-7-7.38h-1.94A7,7,0,0,1,930,67.23c-1.86-1.86-2-3.91-2-9.46s.15-7.6,2-9.47a6.94,6.94,0,0,1,4.94-2c3.51,0,6.06,2.23,6.83,5.85h2c-.88-4.68-4.16-7.6-8.84-7.6a9.11,9.11,0,0,0-6.51,2.67c-2.37,2.37-2.41,4.67-2.41,10.56s0,8.18,2.41,10.56A9.11,9.11,0,0,0,935,71c4.6,0,8-2.93,8.84-7.6m-26.93,7.38h2v-26h-2V67.31l-15-22.55h-2v26h2V48.16ZM888.71,42.27h2.08L886.3,36.9h-2l-4.5,5.37h2.08l3.4-4ZM877.86,70.78h15.79V69H879.83V58.54H891.6V56.78H879.83V46.51h13.82V44.76H877.86Zm-7.13-9.07V57.48h-9v1.75h7v2.34a7.56,7.56,0,0,1-1.57,5.15,7,7,0,0,1-5.41,2.52,6.86,6.86,0,0,1-4.93-2c-1.87-1.86-2-3.91-2-9.46s.14-7.6,2-9.47a7,7,0,0,1,11.84,3.84h2a8.81,8.81,0,0,0-8.88-7.6,9.11,9.11,0,0,0-6.51,2.67c-2.37,2.37-2.41,4.67-2.41,10.56s0,8.18,2.41,10.56A9.27,9.27,0,0,0,868.61,68c1.57-1.64,2.12-3.54,2.12-6.29m-27,9.07h2v-26h-2Zm-21.09,0h15.79V69H824.58V44.76h-2Zm-22,0h15.79V69H802.54V58.54h11.77V56.78H802.54V46.51h13.82V44.76H800.57ZM787.49,46.51h7.78V44.76H777.76v1.75h7.75V70.78h2Zm-17,24.27h2v-26h-2V67.31l-15-22.55h-2v26h2V48.16Zm-27.19,0h2v-26h-2Z"/></svg>