<svg xmlns="http://www.w3.org/2000/svg" viewBox="0 0 24.1 26.56"><defs><style>.cls-1{fill:#b20d15;}.cls-2{fill:#fff;}</style></defs><title>pdf</title><g id="Camada_2" data-name="Camada 2"><g id="Camada_1-2" data-name="Camada 1"><rect class="cls-1" x="2.95" y="2.99" width="21.15" height="11.28" rx="2.82"/><path class="cls-1" d="M17.3,21.78h1.58L17.3,23.32ZM22.21,1a1,1,0,0,0-1-.95H1A1,1,0,0,0,0,1V25.61a1,1,0,0,0,1,.95H16.34l.17,0,.08,0,.1,0,.09,0a.2.2,0,0,0,.08,0,.79.79,0,0,0,.15-.12l4.91-4.78.11-.13,0,0,.06-.11s0,0,0,0a.88.88,0,0,0,.05-.15h0a.86.86,0,0,0,0-.16V15.56a1,1,0,0,0-1.95,0v4.32H16.32a1,1,0,0,0-1,.95v3.83H2V1.9H21.23a1,1,0,0,0,1-.95"/><path class="cls-2" d="M7.45,9.68V11.8H6.21v-6H8.56A2.78,2.78,0,0,1,9.75,6a1.77,1.77,0,0,1,.79.71,1.9,1.9,0,0,1,.28,1,1.74,1.74,0,0,1-.6,1.4,2.55,2.55,0,0,1-1.68.51Zm0-1H8.56a1.05,1.05,0,0,0,.75-.23.84.84,0,0,0,.26-.66,1,1,0,0,0-.26-.71,1,1,0,0,0-.72-.28H7.45Z"/><path class="cls-2" d="M11.67,11.8v-6h1.85a2.8,2.8,0,0,1,1.42.36,2.54,2.54,0,0,1,1,1,3.18,3.18,0,0,1,.35,1.49v.28a3.12,3.12,0,0,1-.35,1.49,2.42,2.42,0,0,1-1,1,2.91,2.91,0,0,1-1.42.37Zm1.24-5v4h.6a1.36,1.36,0,0,0,1.11-.47A2.1,2.1,0,0,0,15,9V8.65a2.15,2.15,0,0,0-.38-1.39,1.32,1.32,0,0,0-1.11-.47Z"/><path class="cls-2" d="M20.79,9.34H18.41V11.8H17.17v-6h3.92v1H18.41V8.34h2.38Z"/></g></g></svg>