<svg xmlns="http://www.w3.org/2000/svg" viewBox="0 0 26.4 20.25"><defs><style>.cls-1{fill:#fff;}</style></defs><title>pic</title><g id="Camada_2" data-name="Camada 2"><g id="Camada_1-2" data-name="Camada 1"><path class="cls-1" d="M1.59,7.1A2.33,2.33,0,0,1,4,4.83h8.1a.78.78,0,0,0,.77-.59l.64-2.73H19l.64,2.73a.78.78,0,0,0,.78.59h2.05A2.33,2.33,0,0,1,24.81,7.1v9.37a2.33,2.33,0,0,1-2.39,2.27H4a2.33,2.33,0,0,1-2.39-2.27ZM0,16.47a3.89,3.89,0,0,0,4,3.78H22.42a3.89,3.89,0,0,0,4-3.78V7.1a3.89,3.89,0,0,0-4-3.78H21L20.36.59A.79.79,0,0,0,19.59,0H12.86a.79.79,0,0,0-.78.59l-.64,2.73H7.31a.71.71,0,0,0,.32-.6A.77.77,0,0,0,6.84,2H4.77A.77.77,0,0,0,4,2.72a.71.71,0,0,0,.32.6H4A3.89,3.89,0,0,0,0,7.1Z"/><path class="cls-1" d="M16.06,6.5a5,5,0,0,1,5.09,4.83,5,5,0,0,1-5.09,4.84A5,5,0,0,1,11,11.33,5,5,0,0,1,16.06,6.5m0,11.18a6.53,6.53,0,0,0,6.68-6.35A6.52,6.52,0,0,0,16.06,5a6.52,6.52,0,0,0-6.68,6.34,6.53,6.53,0,0,0,6.68,6.35"/><path class="cls-1" d="M16.06,9.22a2.18,2.18,0,0,1,2.23,2.11,2.23,2.23,0,0,1-4.45,0,2.17,2.17,0,0,1,2.22-2.11m0,5.74a3.73,3.73,0,0,0,3.82-3.63,3.72,3.72,0,0,0-3.82-3.62,3.72,3.72,0,0,0-3.81,3.62A3.73,3.73,0,0,0,16.06,15"/><path class="cls-1" d="M6.52,17.08a.78.78,0,0,0,.8-.76V7.1a.77.77,0,0,0-.8-.75.76.76,0,0,0-.79.75v9.22a.77.77,0,0,0,.79.76"/><path class="cls-1" d="M14.79,3.93h3a.78.78,0,0,0,.8-.76.78.78,0,0,0-.8-.75h-3a.77.77,0,0,0-.79.75.77.77,0,0,0,.79.76"/></g></g></svg>