<svg xmlns="http://www.w3.org/2000/svg" viewBox="0 0 24.1 26.56"><defs><style>.cls-1{fill:#d07200;}.cls-2{fill:#fff;}</style></defs><title>ppt</title><g id="Camada_2" data-name="Camada 2"><g id="Camada_1-2" data-name="Camada 1"><rect class="cls-1" x="2.95" y="2.99" width="21.15" height="11.28" rx="2.82"/><path class="cls-1" d="M17.3,21.78h1.58L17.3,23.32ZM22.21,1a1,1,0,0,0-1-.95H1A1,1,0,0,0,0,1V25.61a1,1,0,0,0,1,.95H16.34l.17,0,.08,0,.1,0,.09,0a.2.2,0,0,0,.08,0,.79.79,0,0,0,.15-.12l4.91-4.78.11-.13,0,0,.06-.11s0,0,0,0a.88.88,0,0,0,.05-.15h0a.86.86,0,0,0,0-.16V15.56a1,1,0,0,0-1.95,0v4.32H16.32a1,1,0,0,0-1,.95v3.83H2V1.9H21.23a1,1,0,0,0,1-.95"/><path class="cls-2" d="M7.48,9.68V11.8H6.24v-6H8.59A2.78,2.78,0,0,1,9.78,6a1.82,1.82,0,0,1,.79.71,1.9,1.9,0,0,1,.28,1,1.72,1.72,0,0,1-.61,1.4,2.51,2.51,0,0,1-1.67.51Zm0-1H8.59a1.05,1.05,0,0,0,.75-.23.84.84,0,0,0,.26-.66,1,1,0,0,0-.26-.71,1,1,0,0,0-.72-.28H7.48Z"/><path class="cls-2" d="M12.94,9.68V11.8H11.7v-6h2.35A2.78,2.78,0,0,1,15.24,6a1.82,1.82,0,0,1,.79.71,2,2,0,0,1,.28,1,1.75,1.75,0,0,1-.61,1.4A2.51,2.51,0,0,1,14,9.68Zm0-1h1.11a1.09,1.09,0,0,0,.75-.23.83.83,0,0,0,.25-.66,1,1,0,0,0-.26-.71.94.94,0,0,0-.71-.28H12.94Z"/><path class="cls-2" d="M21.68,6.79H19.84v5H18.6v-5H16.79v-1h4.89Z"/></g></g></svg>