<svg xmlns="http://www.w3.org/2000/svg" viewBox="0 0 20 21"><defs><style>.cls-1{fill:#fff;}</style></defs><title>print</title><g id="Camada_2" data-name="Camada 2"><g id="Camada_1-2" data-name="Camada 1"><path class="cls-1" d="M19,15H16V12.59a.63.63,0,0,0-.68-.59H4.84c-.36,0-.64.24-.84.59V15H1V9H19Zm-4,4H6V13h9v6ZM5,4H7.37S8,4.32,8,4V2h7V8H5ZM7,2.25V3H6.24ZM16,0H7.43L7.35,0h0l-.08,0,0,0L7.1.19,4.19,3.08A.61.61,0,0,0,4,3.52V8H.63A.63.63,0,0,0,0,8.63v7.74A.63.63,0,0,0,.63,17H4v3.37a.63.63,0,0,0,.63.63H15.36a.64.64,0,0,0,.64-.64V17h3.36a.64.64,0,0,0,.64-.64V8.63A.63.63,0,0,0,19.37,8H16V1.06a.64.64,0,0,0-.64-.64"/></g></g></svg>