<svg xmlns="http://www.w3.org/2000/svg" viewBox="0 0 25.32 22.09"><defs><style>.cls-1{fill:#002953;}</style></defs><title>rel</title><g id="Camada_2" data-name="Camada 2"><g id="Camada_1-2" data-name="Camada 1"><path class="cls-1" d="M12.27,15.45h1.12l-1.12,1.09ZM15.75.67A.68.68,0,0,0,15.06,0H.69A.68.68,0,0,0,0,.67V18.16a.69.69,0,0,0,.69.68H11.77l.07,0s0,0,.06,0l.06,0a.39.39,0,0,0,.1-.08l3.49-3.39.08-.09v0a.56.56,0,0,1,0-.08v0a.61.61,0,0,0,0-.11h0s0-.08,0-.12h0V11a.69.69,0,0,0-1.38,0V14.1H11.58a.67.67,0,0,0-.69.67v2.72H1.38V1.35H15.06a.69.69,0,0,0,.69-.68"/><path class="cls-1" d="M14.09,7.67a.68.68,0,0,1-.69.67H11.6V3.77h1.8a.68.68,0,0,1,.69.67ZM13.4,2.42H10.91a.68.68,0,0,0-.69.67V9a.68.68,0,0,0,.69.68H13.4a2.05,2.05,0,0,0,2.07-2V4.44a2.05,2.05,0,0,0-2.07-2"/><path class="cls-1" d="M20.31,3.77a.68.68,0,1,0,0-1.35H17a.68.68,0,0,0-.69.67V9a.69.69,0,0,0,1.38,0V6.59h1.25a.67.67,0,1,0,0-1.34H17.68V3.77Z"/><path class="cls-1" d="M8,4.44v.94a.68.68,0,0,1-.69.67H5.53V3.77H7.32A.68.68,0,0,1,8,4.44m-3.17-2a.68.68,0,0,0-.7.67V9A.7.7,0,0,0,5.53,9V7.4H7.32a2,2,0,0,0,2.07-2V4.44a2.05,2.05,0,0,0-2.07-2Z"/><path class="cls-1" d="M25,16.78a1,1,0,0,0-1.45,0l-2,1.94V11.43a1,1,0,0,0-2.07,0v7.29l-2-1.94a1.06,1.06,0,0,0-1.46,0,1,1,0,0,0,0,1.4l3.8,3.62a1.05,1.05,0,0,0,1.45,0L25,18.18a1,1,0,0,0,0-1.4"/></g></g></svg>