<svg xmlns="http://www.w3.org/2000/svg" viewBox="0 0 24.1 26.56"><defs><style>.cls-1{fill:#3b853b;}.cls-2{fill:#fff;}</style></defs><title>xls</title><g id="Camada_2" data-name="Camada 2"><g id="Camada_1-2" data-name="Camada 1"><rect class="cls-1" x="2.95" y="2.99" width="21.15" height="11.28" rx="2.82"/><path class="cls-1" d="M17.3,21.78h1.58L17.3,23.32ZM22.21,1a1,1,0,0,0-1-.95H1A1,1,0,0,0,0,1V25.61a1,1,0,0,0,1,.95H16.34l.17,0,.08,0,.1,0,.09,0a.2.2,0,0,0,.08,0,.79.79,0,0,0,.15-.12l4.91-4.78.11-.13,0,0,.06-.11s0,0,0,0a.88.88,0,0,0,.05-.15h0a.86.86,0,0,0,0-.16V15.56a1,1,0,0,0-1.95,0v4.32H16.32a1,1,0,0,0-1,.95v3.83H2V1.9H21.23a1,1,0,0,0,1-.95"/><path class="cls-2" d="M8.56,7.86,9.68,5.78h1.43l-1.75,3,1.8,3H9.71L8.56,9.69,7.4,11.8H6l1.8-3L6,5.78H7.43Z"/><path class="cls-2" d="M13,10.8h2.63v1H11.78v-6H13Z"/><path class="cls-2" d="M19.48,10.22a.64.64,0,0,0-.25-.54,3.32,3.32,0,0,0-.89-.4,5.22,5.22,0,0,1-1-.41,1.67,1.67,0,0,1-1-1.49,1.5,1.5,0,0,1,.28-.87,1.79,1.79,0,0,1,.79-.59,2.84,2.84,0,0,1,1.15-.22,2.81,2.81,0,0,1,1.15.23,1.82,1.82,0,0,1,.78.66,1.72,1.72,0,0,1,.28,1H19.48a.78.78,0,0,0-.26-.64,1,1,0,0,0-.73-.23,1.1,1.1,0,0,0-.7.19.62.62,0,0,0-.26.51.58.58,0,0,0,.3.49,3.69,3.69,0,0,0,.87.37A3.68,3.68,0,0,1,20.24,9a1.56,1.56,0,0,1,.48,1.17,1.45,1.45,0,0,1-.59,1.23,2.61,2.61,0,0,1-1.59.44,3,3,0,0,1-1.26-.25,2,2,0,0,1-.87-.7,1.77,1.77,0,0,1-.3-1h1.24c0,.66.4,1,1.19,1a1.13,1.13,0,0,0,.69-.18A.58.58,0,0,0,19.48,10.22Z"/></g></g></svg>