<svg xmlns="http://www.w3.org/2000/svg" viewBox="0 0 24.1 26.56"><defs><style>.cls-1{fill:#72777e;}.cls-2{fill:#fff;}</style></defs><title>zip</title><g id="Camada_2" data-name="Camada 2"><g id="Camada_1-2" data-name="Camada 1"><rect class="cls-1" x="2.95" y="2.99" width="21.15" height="11.28" rx="2.82"/><path class="cls-1" d="M17.3,21.78h1.58L17.3,23.32ZM22.21,1a1,1,0,0,0-1-.95H1A1,1,0,0,0,0,1V25.61a1,1,0,0,0,1,.95H16.34l.17,0,.08,0,.1,0,.09,0a.2.2,0,0,0,.08,0,.79.79,0,0,0,.15-.12l4.91-4.78.11-.13,0,0,.06-.11s0,0,0,0a.88.88,0,0,0,.05-.15h0a.86.86,0,0,0,0-.16V15.56a1,1,0,0,0-1.95,0v4.32H16.32a1,1,0,0,0-1,.95v3.83H2V1.9H21.23a1,1,0,0,0,1-.95"/><path class="cls-2" d="M9,10.8h3v1H7.49v-.73l3-4.28h-3v-1H12v.71Z"/><path class="cls-2" d="M14.17,11.8H12.93v-6h1.24Z"/><path class="cls-2" d="M16.55,9.68V11.8H15.31v-6h2.35A2.78,2.78,0,0,1,18.85,6a1.77,1.77,0,0,1,.79.71,1.9,1.9,0,0,1,.28,1,1.74,1.74,0,0,1-.6,1.4,2.55,2.55,0,0,1-1.68.51Zm0-1h1.11a1.06,1.06,0,0,0,.75-.24.84.84,0,0,0,.26-.66,1,1,0,0,0-.26-.71,1,1,0,0,0-.72-.28H16.55Z"/></g></g></svg>